<svg width="24" height="24" viewBox="0 0 24 24" fill="none" xmlns="http://www.w3.org/2000/svg">
<g clip-path="url(#clip0_2009_46)">
<path d="M13.1383 0.218116C13.2563 0.252435 13.2563 0.252435 13.3767 0.287447C13.6358 0.363013 13.8946 0.439705 14.1533 0.516411C14.3355 0.569773 14.5176 0.623067 14.6998 0.676294C15.1734 0.814899 15.6468 0.95447 16.12 1.09435C16.5648 1.22574 17.0098 1.3565 17.4548 1.48735C17.9584 1.63549 18.4619 1.78381 18.9652 1.9328C19.7292 2.15892 20.4935 2.38377 21.2594 2.6035C21.3272 2.62298 21.3949 2.64247 21.4647 2.66255C21.7773 2.75245 22.09 2.84195 22.4029 2.93056C22.5118 2.96181 22.6207 2.99309 22.7296 3.02439C22.8224 3.05075 22.9152 3.07711 23.0107 3.10427C23.6942 3.33358 23.6942 3.33358 23.894 3.59197C23.9673 3.84342 23.9704 4.07024 23.9709 4.33197C23.9711 4.43917 23.9713 4.54637 23.9716 4.65682C23.9712 4.71241 23.9709 4.76799 23.9705 4.82526C23.9696 4.99488 23.9705 5.16443 23.9716 5.33405C23.9712 5.49485 23.9712 5.49485 23.9709 5.65889C23.9707 5.75695 23.9705 5.85501 23.9703 5.95604C23.9484 6.21225 23.914 6.33322 23.7788 6.54788C23.364 6.83659 22.8391 6.98812 22.3632 7.15103C22.2922 7.1758 22.2211 7.20056 22.1478 7.22608C21.9935 7.27984 21.8391 7.33341 21.6846 7.38682C21.2602 7.53361 20.8363 7.68195 20.4124 7.83022C20.3223 7.8617 20.2322 7.89317 20.1394 7.9256C19.0338 8.31268 17.9319 8.70995 16.83 9.10732C16.7331 9.14225 16.6362 9.17717 16.5364 9.21316C16.2536 9.31509 15.9709 9.41706 15.6881 9.51903C15.5983 9.5514 15.5086 9.58376 15.4161 9.61711C14.9703 9.7779 14.5246 9.93898 14.0791 10.1005C13.9094 10.162 13.7397 10.2234 13.57 10.2848C13.4923 10.313 13.4147 10.3413 13.3347 10.3704C13.263 10.3963 13.1914 10.4222 13.1176 10.4488C13.0553 10.4714 12.9929 10.4941 12.9287 10.5174C11.9434 10.8473 11.127 10.545 10.194 10.2035C10.057 10.1545 9.9199 10.1056 9.78281 10.0568C9.48742 9.95137 9.19234 9.84517 8.89748 9.73833C8.41643 9.56408 7.93462 9.39194 7.45268 9.22008C6.86432 9.01018 6.27617 8.79969 5.68831 8.58841C4.95446 8.3247 4.21993 8.06308 3.48404 7.80498C3.33208 7.75155 3.18012 7.69811 3.02817 7.64467C2.81391 7.56932 2.59959 7.49414 2.38505 7.41958C0.509891 6.76784 0.509891 6.76784 0.117986 6.38005C-0.0351583 5.94362 0.0175402 5.45617 0.0172791 5.00068C0.0162406 4.90565 0.0152021 4.81062 0.0141321 4.71271C0.0139681 4.62092 0.0138041 4.52914 0.0136351 4.43457C0.0132867 4.35101 0.0129382 4.26746 0.0125792 4.18137C0.041079 3.85642 0.105454 3.62661 0.337371 3.38904C0.634904 3.22346 0.944752 3.13909 1.27214 3.04733C1.34523 3.02622 1.41833 3.00511 1.49364 2.98336C1.73455 2.91391 1.97574 2.84542 2.21693 2.7769C2.38591 2.72832 2.55486 2.67965 2.72379 2.63091C2.98394 2.55584 3.24409 2.48083 3.50432 2.40605C4.27047 2.18585 5.03483 1.96006 5.7987 1.73227C6.14469 1.62911 6.49077 1.52628 6.83685 1.42343C6.90468 1.40326 6.97252 1.38309 7.04242 1.36232C7.7557 1.15036 8.46927 0.939343 9.18304 0.729013C9.31753 0.689372 9.452 0.649692 9.58646 0.609972C9.99182 0.490251 10.3975 0.371872 10.8035 0.254173C10.8939 0.227252 10.9844 0.20033 11.0776 0.172593C11.158 0.14943 11.2384 0.126268 11.3213 0.102403C11.3882 0.0827767 11.4551 0.06315 11.5241 0.0429286C12.1057 -0.0680454 12.5855 0.0524859 13.1383 0.218116Z" fill="white"/>
<path d="M0.944798 8.52109C1.28204 8.59307 1.60109 8.70697 1.9244 8.82471C1.99868 8.85114 2.07296 8.87757 2.14949 8.9048C2.38599 8.98912 2.62212 9.07441 2.85826 9.15972C3.01311 9.21507 3.16798 9.27036 3.32287 9.32559C4.06807 9.59178 4.81171 9.86206 5.55481 10.1339C6.14107 10.3483 6.72937 10.5551 7.32116 10.7541C7.98507 10.9777 8.64433 11.21 9.30084 11.454C9.50617 11.5296 9.71153 11.6052 9.9169 11.6807C10.0507 11.7303 10.1842 11.7804 10.3176 11.8311C11.8607 12.4172 12.7423 12.2156 14.2593 11.6562C14.4299 11.5946 14.6005 11.5331 14.7712 11.4717C15.1191 11.3464 15.4668 11.2204 15.8142 11.0937C16.2706 10.9276 16.7279 10.764 17.1858 10.602C17.2883 10.5657 17.2883 10.5657 17.3929 10.5287C17.5287 10.4807 17.6645 10.4327 17.8003 10.3847C18.135 10.2663 18.4695 10.1476 18.804 10.0287C18.8701 10.0052 18.9362 9.98174 19.0043 9.95754C19.4395 9.80266 19.8741 9.64628 20.3085 9.48914C20.6127 9.37917 20.9171 9.26973 21.2214 9.16032C21.3662 9.10812 21.5109 9.05566 21.6555 9.00293C21.8559 8.92988 22.0565 8.85771 22.2572 8.78571C22.3156 8.76418 22.3739 8.74264 22.434 8.72046C22.8276 8.58056 23.1885 8.48021 23.6091 8.47791C23.8182 8.62689 23.8182 8.62689 23.9484 8.89749C23.9966 9.19436 23.9979 9.48624 23.9964 9.78647C23.9969 9.87243 23.9975 9.95838 23.998 10.0469C23.9986 10.2283 23.9983 10.4098 23.9972 10.5912C23.9961 10.8686 23.999 11.1458 24.0022 11.4232C24.0023 11.5996 24.0021 11.7761 24.0017 11.9526C24.0028 12.0353 24.0039 12.1181 24.0051 12.2034C24 12.5751 23.992 12.7794 23.7738 13.0901C23.4865 13.2871 23.1991 13.4155 22.8721 13.5302C22.8075 13.5539 22.743 13.5776 22.6765 13.602C22.4631 13.6801 22.249 13.7564 22.0349 13.8328C21.8836 13.8878 21.7323 13.9428 21.5811 13.9979C21.1802 14.1438 20.7788 14.2881 20.3772 14.432C19.9757 14.576 19.5744 14.7207 19.1731 14.8654C18.6993 15.036 18.2254 15.2065 17.7513 15.3763C16.8576 15.6965 15.9661 16.0219 15.0771 16.3545C13.4951 16.9458 13.4951 16.9458 12.7911 17.1894C12.7336 17.2103 12.6761 17.2312 12.6168 17.2527C11.9789 17.467 11.4436 17.2645 10.8406 17.0478C10.7673 17.022 10.6941 16.9961 10.6186 16.9695C10.369 16.8809 10.1198 16.7914 9.87063 16.7017C9.73967 16.6546 9.73967 16.6546 9.60606 16.6066C8.84536 16.3329 8.08583 16.0559 7.32646 15.7786C7.25266 15.7517 7.17887 15.7247 7.10284 15.6969C6.105 15.3325 5.10735 14.9676 4.10982 14.6024C3.63786 14.4296 3.16568 14.2574 2.69329 14.0859C2.58825 14.0476 2.48321 14.0094 2.375 13.97C2.18957 13.9025 2.00408 13.8352 1.8185 13.7682C0.391107 13.248 0.391107 13.248 0.117977 12.9255C0.0404233 12.6952 0.0220835 12.5578 0.0208522 12.3205C0.0203112 12.2497 0.0197701 12.1788 0.0192127 12.1058C0.0191183 12.0295 0.019024 11.9532 0.0189267 11.8745C0.0186445 11.7958 0.0183622 11.7171 0.0180714 11.6359C0.017642 11.4693 0.0174431 11.3027 0.0174567 11.1361C0.0172715 10.8816 0.0157319 10.6271 0.0141233 10.3726C0.0138744 10.2106 0.0137061 10.0487 0.0136264 9.88678C0.013017 9.8108 0.0124076 9.73483 0.0117798 9.65655C0.0143041 8.9658 0.0143041 8.9658 0.202783 8.64574C0.492163 8.45484 0.610928 8.46939 0.944798 8.52109Z" fill="white"/>
<path d="M0.628347 15.0871C1.02459 15.1109 1.33557 15.2111 1.70477 15.3473C1.77531 15.3725 1.84585 15.3976 1.91853 15.4236C2.14907 15.5061 2.3791 15.5899 2.60915 15.6738C2.77116 15.7321 2.9332 15.7903 3.09527 15.8484C3.42156 15.9656 3.74766 16.0833 4.07358 16.2015C4.46173 16.3423 4.85028 16.4819 5.23912 16.6208C6.19982 16.9644 7.15933 17.311 8.11659 17.664C8.49552 17.8037 8.87465 17.9428 9.25378 18.0819C9.44097 18.1508 9.62807 18.2199 9.81506 18.2893C10.0782 18.387 10.3416 18.4838 10.6051 18.5804C10.6836 18.6098 10.7621 18.6392 10.843 18.6695C11.404 18.8737 11.9675 19.0738 12.5586 18.8701C12.6314 18.8457 12.7043 18.8212 12.7794 18.7961C12.8585 18.7678 12.9376 18.7396 13.019 18.7105C13.1062 18.6806 13.1933 18.6507 13.283 18.6198C13.5881 18.5141 13.892 18.4056 14.1957 18.2962C14.2519 18.2759 14.3081 18.2557 14.3659 18.2349C15.0117 18.002 15.6565 17.7666 16.3008 17.53C17.5341 17.0773 18.7714 16.6356 20.0089 16.194C20.1286 16.1513 20.1286 16.1513 20.2506 16.1077C20.4077 16.0516 20.5648 15.9957 20.7219 15.94C21.1019 15.8048 21.4802 15.6666 21.8566 15.522C21.9289 15.4945 22.0013 15.467 22.0758 15.4387C22.2107 15.3873 22.3452 15.3351 22.4793 15.2818C22.9011 15.122 23.2418 15.0461 23.6939 15.1073C23.9508 15.3456 23.9638 15.5898 23.9813 15.9222C23.983 16.0807 23.9832 16.2391 23.9822 16.3976C23.9824 16.4816 23.9826 16.5657 23.9829 16.6524C23.9831 16.8298 23.9826 17.0073 23.9815 17.1848C23.9802 17.456 23.9815 17.7272 23.9831 17.9985C23.983 18.1712 23.9827 18.3438 23.9822 18.5164C23.9827 18.5974 23.9832 18.6783 23.9837 18.7617C23.9758 19.5146 23.9758 19.5146 23.6939 19.8066C23.4692 19.918 23.2638 20.0038 23.0284 20.0849C22.961 20.1095 22.8937 20.134 22.8243 20.1593C22.6798 20.2118 22.535 20.2636 22.3901 20.315C22.1713 20.3927 21.9533 20.4724 21.7355 20.553C21.3552 20.6936 20.9744 20.8327 20.5934 20.9713C20.1673 21.1264 19.7414 21.282 19.3155 21.4374C19.2285 21.4692 19.1415 21.5009 19.0519 21.5336C18.2204 21.8372 17.3895 22.1424 16.5589 22.4484C16.3285 22.5332 16.0981 22.6178 15.8677 22.7024C15.2335 22.9355 14.6 23.1696 13.9695 23.4121C13.8288 23.4658 13.8288 23.4658 13.6854 23.5206C13.5221 23.5832 13.3593 23.6465 13.1968 23.711C12.3858 24.0212 11.7452 24.0677 10.9327 23.75C10.8595 23.7231 10.7864 23.6961 10.711 23.6683C10.56 23.6124 10.4092 23.5558 10.2588 23.4984C10.0559 23.421 9.85242 23.3457 9.64843 23.2712C9.3269 23.1537 9.0061 23.0343 8.68551 22.9143C8.32189 22.7782 7.95801 22.6428 7.59413 22.5074C7.51789 22.479 7.44164 22.4506 7.36309 22.4214C6.5352 22.1136 5.70535 21.8112 4.87549 21.5087C3.72222 21.0883 2.56921 20.6675 1.42187 20.2315C1.33453 20.1983 1.2472 20.1652 1.15722 20.1311C0.722979 19.9648 0.722979 19.9648 0.542009 19.8906C0.451595 19.8626 0.451595 19.8626 0.359354 19.834C0.158216 19.6911 0.116199 19.5446 0.0607043 19.3105C0.00898257 18.9814 0.00731387 18.6542 0.00766714 18.3217C0.00730373 18.2453 0.00694033 18.1689 0.00656592 18.0902C0.00608114 17.9295 0.00603473 17.7689 0.00640416 17.6082C0.00667314 17.3627 0.00467638 17.1173 0.00253242 16.8719C0.00233973 16.7153 0.00227996 16.5587 0.00236678 16.4021C0.00158575 16.3291 0.000804706 16.256 0 16.1807C0.00370366 15.6994 0.0501851 15.1328 0.628347 15.0871Z" fill="white"/>
</g>
<defs>
<clipPath id="clip0_2009_46">
<rect width="24" height="24" fill="white"/>
</clipPath>
</defs>
</svg>
