<svg width="16" height="24" viewBox="0 0 16 24" fill="none" xmlns="http://www.w3.org/2000/svg">
<g clip-path="url(#clip0_2008_2)">
<path d="M0.873227 23.6918C0.280375 23.296 -0.00046294 22.7516 5.72797e-07 22.053C0.00225468 18.6581 0.0017811 15.2633 0.00220343 11.8684C0.00250761 9.41649 0.00151148 6.96463 0.00357172 4.51276C0.00432718 3.61491 0.54359 2.88756 1.36849 2.66302C1.45609 2.63917 1.54691 2.61289 1.63637 2.61239C2.37118 2.60833 2.86112 2.6101 3.61394 2.6101C3.61394 2.96362 3.61083 3.31421 3.61547 3.6647C3.61732 3.80401 3.61974 3.9469 3.65057 4.0816C3.7558 4.54139 4.11747 4.8325 4.59901 4.8333C6.92918 4.83718 9.25938 4.83839 11.5895 4.83321C12.1836 4.83189 12.5791 4.42438 12.5909 3.83256C12.595 3.63186 12.5949 3.43107 12.5956 3.23032C12.5963 3.03022 12.5958 2.83011 12.5958 2.60159C12.7226 2.60159 12.8412 2.60152 12.9598 2.6016C13.2761 2.6018 13.8374 2.60107 14.1538 2.60248C15.1982 2.60714 15.9913 3.37757 16.0071 4.4284C16.0218 5.4138 16.0129 6.39957 16.013 7.38518C16.0135 12.2585 16.0135 17.1318 16.0137 22.0051C16.0137 23.0429 15.475 23.7186 14.4681 23.9399C14.3918 23.9566 14.3116 23.9619 14.2333 23.9619C10.1083 23.9632 5.9833 23.9631 1.85832 23.964C1.50895 23.9641 1.18944 23.8595 0.873227 23.6918ZM10.0344 9.61843C10.9961 8.83447 10.76 7.2187 9.65306 6.67673C9.04994 6.38144 8.41838 6.32784 7.76936 6.44401C7.26486 6.53431 6.82747 6.7612 6.49768 7.16509C6.19182 7.53968 6.0384 7.96558 6.06968 8.46225C6.51586 8.46225 6.94527 8.46225 7.35444 8.46225C7.40775 8.29199 7.44048 8.12935 7.50819 7.98288C7.66576 7.64203 8.02679 7.48078 8.47902 7.52932C8.85027 7.56916 9.09275 7.786 9.18425 8.16156C9.27306 8.52604 9.15794 8.82312 8.86849 9.04869C8.65325 9.21642 8.427 9.37045 8.20138 9.52433C7.91473 9.71983 7.68935 9.97062 7.62081 10.3115C7.56171 10.6054 7.56232 10.9113 7.53578 11.2206C7.99351 11.2206 8.41549 11.2206 8.83128 11.2206C8.84064 11.2066 8.8466 11.2018 8.84666 11.1969C8.84737 11.1362 8.84772 11.0753 8.84723 11.0145C8.84405 10.6271 8.98459 10.3241 9.32929 10.1161C9.56768 9.97222 9.78716 9.79703 10.0344 9.61843ZM10.8001 20.1345C11.5602 20.1348 12.3204 20.1362 13.0806 20.1349C13.386 20.1344 13.5935 19.9929 13.668 19.742C13.7889 19.3352 13.51 19.006 13.0424 19.006C11.0355 19.0062 9.02869 19.007 7.02186 19.0076C6.85768 19.0077 6.69305 19.0002 6.52943 19.0098C6.27598 19.0247 6.08521 19.1908 6.02211 19.4357C5.96375 19.6622 6.05029 19.9223 6.2609 20.0347C6.38269 20.0997 6.53704 20.13 6.67696 20.1307C8.03914 20.1374 9.40136 20.1346 10.8001 20.1345ZM10.435 15.572C9.15102 15.5718 7.86706 15.5706 6.58311 15.5721C6.17687 15.5726 5.91332 15.9277 6.03485 16.3033C6.11871 16.5624 6.33136 16.6985 6.66338 16.6986C8.68362 16.6991 10.7039 16.6986 12.7241 16.6984C12.858 16.6984 12.9921 16.7032 13.1257 16.6965C13.3893 16.6832 13.5908 16.5409 13.6609 16.3269C13.7905 15.9311 13.5286 15.5735 13.1002 15.5721C12.224 15.5692 11.3477 15.5717 10.435 15.572ZM3.35728 20.8233C3.52665 20.8779 3.65048 20.8145 3.75175 20.6783C4.20825 20.0644 4.66778 19.4527 5.12312 18.838C5.25273 18.663 5.23361 18.4595 5.08903 18.3515C4.94443 18.2435 4.74726 18.2857 4.6145 18.4613C4.41318 18.7276 4.21742 18.998 4.01804 19.2657C3.82654 19.5228 3.63343 19.7788 3.47111 19.9951C3.26336 19.8085 3.06118 19.6256 2.85759 19.4443C2.72754 19.3285 2.55351 19.3284 2.4308 19.4412C2.31344 19.5491 2.28065 19.7346 2.3907 19.8522C2.69721 20.1798 3.01734 20.4946 3.35728 20.8233ZM3.11476 16.7922C3.45135 17.0541 3.80959 17.1006 4.12991 16.9077C4.44587 16.7175 4.62128 16.4355 4.59158 16.0599C4.55988 15.659 4.259 15.3236 3.8898 15.2467C3.51586 15.1688 3.11738 15.3448 2.93727 15.6675C2.73559 16.0288 2.79713 16.4606 3.11476 16.7922ZM8.604 13.4901C8.92638 13.3137 9.07029 13.0383 9.03426 12.6768C9.00371 12.3703 8.84902 12.1393 8.55723 12.0226C8.24037 11.8958 7.94764 11.9524 7.69656 12.1824C7.42183 12.434 7.37005 12.8783 7.56838 13.2022C7.77147 13.5339 8.16007 13.649 8.604 13.4901Z" fill="white"/>
<path d="M4.32645 3.8098C4.32632 3.25166 4.32506 2.71047 4.32699 2.16929C4.328 1.88566 4.43823 1.77184 4.72503 1.76944C5.23578 1.76517 5.74658 1.76813 6.25736 1.76808C6.32896 1.76807 6.40055 1.76807 6.46952 1.76807C6.62907 0.600407 7.17383 0.00462621 8.08791 2.32849e-05C8.56032 -0.00235562 8.96427 0.177594 9.29316 0.517921C9.62684 0.863216 9.72445 1.29428 9.72046 1.76765C10.2376 1.76765 10.7412 1.76759 11.2447 1.76771C11.3298 1.76773 11.415 1.76751 11.5001 1.76913C11.7754 1.77439 11.8898 1.8852 11.8905 2.1547C11.8919 2.70804 11.8916 3.26139 11.8897 3.81474C11.8887 4.10636 11.7811 4.21029 11.4725 4.21069C10.1043 4.21248 8.73615 4.212 7.36799 4.21219C6.49237 4.21231 5.61674 4.21309 4.74112 4.21161C4.44848 4.21112 4.34151 4.10888 4.32645 3.8098ZM7.56158 2.02794C7.82844 2.29912 8.14142 2.36562 8.43551 2.21363C8.70385 2.07495 8.86012 1.74631 8.80166 1.44359C8.74631 1.15701 8.53106 0.932181 8.25521 0.872845C7.98694 0.815139 7.69421 0.931923 7.53601 1.15977C7.34809 1.43042 7.35119 1.70987 7.56158 2.02794Z" fill="white"/>
</g>
<defs>
<clipPath id="clip0_2008_2">
<rect width="16" height="24" fill="white"/>
</clipPath>
</defs>
</svg>
